<?xml version="1.0" standalone="no"?>
<!DOCTYPE svg PUBLIC "-//W3C//DTD SVG 1.1//EN" "http://www.w3.org/Graphics/SVG/1.1/DTD/svg11.dtd" >
<svg>
<metadata>
Created by FontForge 20090622 at Mon Aug 21 16:59:47 2017
 By deploy user
  Copyright Gerard Unger 1998, Bussum, The Netherlands
</metadata>
<defs>
<font id="Capitolium-BoldRoman" horiz-adv-x="548" >
  <font-face 
    font-family="Capitolium"
    font-weight="400"
    font-variant="small-caps"
    font-stretch="normal"
    units-per-em="1000"
    panose-1="2 0 0 0 0 0 0 0 0 0"
    ascent="800"
    descent="-200"
    x-height="465"
    cap-height="658"
    bbox="-66 -272 1171 826"
    underline-thickness="60"
    underline-position="-50"
    unicode-range="U+0020-U+FB02"
  />
<missing-glyph horiz-adv-x="1000" 
 />
    <glyph glyph-name=".notdef" horiz-adv-x="1000" 
 />
    <glyph glyph-name=".notdef" horiz-adv-x="1000" 
 />
    <glyph glyph-name=".null" horiz-adv-x="0" 
 />
    <glyph glyph-name="nonmarkingreturn" horiz-adv-x="333" 
 />
    <glyph glyph-name="space" unicode=" " horiz-adv-x="190" 
 />
    <glyph glyph-name="space" unicode="&#xa0;" horiz-adv-x="190" 
 />
    <glyph glyph-name="exclam" unicode="!" horiz-adv-x="390" 
d="M280 588q0 -5 -3 -53q-7 -75 -28 -197t-29 -142h-50q-7 22 -28.5 143t-28.5 194q-3 48 -3 53q0 85 85 85t85 -83zM276 67q0 -39 -24 -59t-57 -20q-32 0 -56.5 19.5t-24.5 58.5t24 59t58 20q32 0 56 -19.5t24 -58.5z" />
    <glyph glyph-name="percent" unicode="%" horiz-adv-x="676" 
d="M344 506q0 -67 -42 -110.5t-116 -43.5q-76 0 -117 43.5t-41 110.5q0 66 41 109.5t117 43.5q77 0 117.5 -43t40.5 -110zM261 507q0 43 -20.5 68t-54.5 25q-36 0 -55.5 -26t-19.5 -69t20.5 -68t54.5 -25q36 0 55.5 25.5t19.5 69.5zM661 648l-555 -648h-91l555 648h91z
M648 143q0 -67 -42 -110.5t-116 -43.5q-76 0 -117 43.5t-41 110.5q0 66 41 109.5t117 43.5q77 0 117.5 -43t40.5 -110zM565 144q0 43 -20.5 68t-54.5 25q-36 0 -55.5 -26t-19.5 -69t20.5 -68t54.5 -25q36 0 55.5 25.5t19.5 69.5z" />
    <glyph glyph-name="ampersand" unicode="&#x26;" horiz-adv-x="707" 
d="M699 385q-37 -3 -52 -22q-15 -17 -20 -69q-11 -118 -78 -181l31 -33q1 -1 12 -13t14 -14.5t13 -11.5t16 -12.5t15.5 -7.5t18.5 -6v-17q-45 3 -113 3q-57 0 -73 -1l-37 39q-65 -44 -179 -44h-24t-37 3.5t-47 9t-45.5 18t-43 30.5t-28.5 47t-12 65q0 117 140 170l-25 28
q-68 77 -68 147q0 69 49 108t136 39q185 0 185 -138q0 -33 -12.5 -61t-28.5 -44t-37.5 -29t-32.5 -17.5t-19 -6.5l207 -225q37 48 37 132q0 60 -23 87q-22 25 -61 25v20q42 -3 101 -3q89 0 121 3v-18zM348 520q0 103 -77 103q-74 0 -74 -79q0 -27 11.5 -52t23.5 -39t39 -42
l31 -32q46 44 46 141zM419 69l-231 251q-35 -47 -35 -114q0 -70 41.5 -114t126.5 -44q29 0 58 6.5t40 14.5z" />
    <glyph glyph-name="parenleft" unicode="(" horiz-adv-x="366" 
d="M296 -215l-52 -57q-110 85 -162 219t-52 283t52 283.5t162 219.5l52 -56q-93 -75 -137.5 -193t-44.5 -253t44.5 -253t137.5 -193z" />
    <glyph glyph-name="parenright" unicode=")" horiz-adv-x="366" 
d="M336 230q0 -148 -52.5 -282.5t-161.5 -219.5l-52 57q92 75 137 193t45 253t-45 253t-137 193l52 56q109 -85 161.5 -219.5t52.5 -283.5z" />
    <glyph glyph-name="asterisk" unicode="*" horiz-adv-x="466" 
d="M400 618l-47 -77l-101 90l32 -137h-101l32 137l-101 -90l-47 77l133 42l-133 42l47 77l101 -89l-32 136h101l-32 -136l101 89l47 -77l-133 -42z" />
    <glyph glyph-name="plus" unicode="+" horiz-adv-x="566" 
d="M546 285h-217v-222h-92v222h-217v87h217v222h92v-222h217v-87z" />
    <glyph glyph-name="comma" unicode="," horiz-adv-x="228" 
d="M198 44q0 -64 -36 -120t-101 -87l-12 13q50 56 50 117q0 27 -25 42q-34 22 -34 62q0 33 21.5 52.5t54.5 19.5q11 0 22 -3t26 -11.5t24.5 -30.5t9.5 -54z" />
    <glyph glyph-name="hyphen" unicode="-" horiz-adv-x="239" 
d="M229 203h-219v83h219v-83z" />
    <glyph glyph-name="hyphen" unicode="&#xad;" horiz-adv-x="239" 
d="M229 203h-219v83h219v-83z" />
    <glyph glyph-name="period" unicode="." horiz-adv-x="232" 
d="M202 67q0 -39 -24 -59t-57 -20q-32 0 -56.5 19.5t-24.5 58.5t24 59t58 20q32 0 56 -19.5t24 -58.5z" />
    <glyph glyph-name="slash" unicode="/" horiz-adv-x="266" 
d="M266 732l-186 -1000h-80l187 1000h79z" />
    <glyph glyph-name="zero" unicode="0" 
d="M523 342q0 -21 -0.5 -35.5t-5 -54.5t-13 -69.5t-27.5 -68t-45.5 -63.5t-69 -43t-95.5 -18q-62 0 -108.5 25.5t-71 60.5t-39.5 82.5t-19 82t-4 67.5v25.5t2.5 38.5t6 49.5t12.5 53t21 55.5t32 49t45 42.5t60 27.5t77 11q62 0 108.5 -25t71 -60.5t39.5 -83t19 -81.5t4 -68z
M379 322q0 164 -24 231t-81 67q-58 0 -83 -84q-21 -74 -21 -207q0 -163 24 -230.5t80 -67.5q60 0 84 84q21 69 21 207z" />
    <glyph glyph-name="one" unicode="1" 
d="M436 -2q-58 3 -154 3t-155 -3v18q47 0 69 24q12 14 15 38t3 93v349q0 19 -19 19q-6 0 -107 -15v32q12 4 49.5 15.5t66.5 21.5t54 20q56 22 90 47l11 -5q-7 -112 -7 -241v-272q0 -81 13 -99q17 -26 71 -26v-19z" />
    <glyph glyph-name="two" unicode="2" 
d="M474 191q-9 -59 -9 -191h-445v43l44 36.5l57 48l50.5 46t55 57.5t41.5 56q48 75 48 169q0 55 -32 95.5t-102 40.5q-83 0 -130 -71l-24 18q5 12 11 23.5t23 31t38 33t57.5 24t80.5 10.5q62 0 109 -19q114 -45 114 -166q0 -65 -34.5 -125t-142.5 -146q-77 -61 -139 -101
h176q45 0 72 6t43 27q16 19 17 54h21z" />
    <glyph glyph-name="three" unicode="3" 
d="M470 184q0 -53 -20.5 -92t-56.5 -60t-77 -30.5t-89 -9.5q-128 0 -206 74l18 23q56 -40 137 -40q149 0 149 142q0 38 -13 65.5t-28.5 39.5t-39 19t-32.5 7.5t-20 0.5q-17 0 -35 -2v45h16q138 0 138 126q0 30 -10.5 52t-23.5 32t-31.5 16t-27 6.5t-18.5 0.5q-78 0 -120 -71
l-24 18q56 115 197 115q149 0 183 -98q9 -25 9 -57q0 -13 -1.5 -25t-12 -35.5t-28.5 -41t-55 -33.5t-88 -21q106 0 158 -47t52 -119z" />
    <glyph glyph-name="four" unicode="4" 
d="M510 169h-83v-31q0 -72 7 -89q4 -9 11 -16q16 -16 46 -17v-18q-59 3 -139 3q-60 0 -118 -3v17q33 3 48 19q10 11 14 29.5t4.5 34.5t0.5 64v7h-296v65q88 111 207.5 247t174.5 178l47 -3q-8 -102 -8 -259v-133h84v-95zM301 264v260q-8 -17 -32 -46l-173 -214h205z" />
    <glyph glyph-name="five" unicode="5" 
d="M474 220q0 -102 -61 -165t-188 -63q-19 0 -37 2t-32.5 5t-29 7.5t-25 8.5t-20.5 10l-17 10.5t-14 10t-10.5 8.5t-7.5 8l-5 4l17 23q56 -39 135 -39q13 0 21.5 0.5t37 8t47 21.5t34.5 45.5t16 75.5q0 85 -40.5 117.5t-107.5 32.5q-32 0 -79 -10l-27 16l27 297h335v-106
h-294l-12 -135q1 0 10 2t32.5 5t53.5 3q63 0 110 -16t71.5 -37.5t38.5 -52t17.5 -52.5t3.5 -45z" />
    <glyph glyph-name="six" unicode="6" 
d="M513 202q0 -102 -63.5 -156t-162.5 -54q-70 0 -119.5 23t-76.5 66.5t-38.5 97.5t-11.5 125q0 47 12 109t38 106q40 71 111 104t156 33q84 0 145 -30l-7 -28q-46 12 -108 12q-61 0 -103.5 -20.5t-64.5 -59t-30.5 -83.5t-7.5 -104l5 5q5 5 9.5 9t12.5 10t18 10.5t22.5 9
t28.5 7t34 2.5q95 0 148 -52.5t53 -141.5zM374 189q0 78 -25 116t-80 38q-13 0 -24.5 -1.5t-19.5 -4t-16.5 -6t-12 -5.5t-9.5 -6l-6 -4q1 -163 20 -224.5t78 -61.5q50 0 72.5 39t22.5 120z" />
    <glyph glyph-name="seven" unicode="7" 
d="M489 591l-223 -594h-128v17q55 80 148 251.5t135 286.5h-204q-32 0 -47.5 -1t-34 -6.5t-31.5 -16.5q-23 -20 -23 -57h-21l3 183h426v-63z" />
    <glyph glyph-name="eight" unicode="8" 
d="M505 170q0 -83 -59.5 -131t-175.5 -48q-108 0 -167.5 40.5t-59.5 115.5q0 62 37.5 103t118.5 69l-44 28q-89 57 -89 150q0 75 53.5 119t156.5 44q95 0 148 -38t53 -105q0 -55 -35 -92.5t-101 -54.5l55 -32q58 -34 83.5 -73t25.5 -95zM370 511q0 111 -97 111
q-96 0 -96 -94q0 -36 19 -59t60 -48l63 -39q51 51 51 129zM386 133q0 37 -16.5 61.5t-63.5 55.5l-85 55q-36 -35 -49 -69t-13 -80q0 -62 29 -95t85 -33q60 0 86.5 31.5t26.5 73.5z" />
    <glyph glyph-name="nine" unicode="9" 
d="M505 348q0 -47 -12 -109t-38 -106q-41 -71 -112 -104t-156 -33q-84 0 -144 30l6 28q47 -12 108 -12q62 0 104.5 20.5t64.5 59t30.5 83.5t7.5 104q-1 -1 -7 -6.5l-12 -10.5t-17.5 -12t-24 -12t-31 -8.5t-39.5 -3.5q-95 0 -147.5 53t-52.5 141q0 103 63 156.5t162 53.5
q70 0 119.5 -23t76.5 -66.5t39 -97.5t12 -125zM364 336q-1 164 -20 225t-78 61q-49 0 -71.5 -39t-22.5 -120q0 -78 25 -116t80 -38q13 0 24.5 1.5t19.5 4t16 6t12 6t9 6t6 3.5z" />
    <glyph glyph-name="colon" unicode=":" horiz-adv-x="242" 
d="M212 394q0 -39 -24 -59t-57 -20q-32 0 -56.5 19.5t-24.5 58.5t24 59t58 20q32 0 56 -19.5t24 -58.5zM212 67q0 -39 -24 -59t-57 -20q-32 0 -56.5 19.5t-24.5 58.5t24 59t58 20q32 0 56 -19.5t24 -58.5z" />
    <glyph glyph-name="semicolon" unicode=";" horiz-adv-x="242" 
d="M212 394q0 -39 -24 -59t-57 -20q-32 0 -56.5 19.5t-24.5 58.5t24 59t58 20q32 0 56 -19.5t24 -58.5zM208 44q0 -64 -35.5 -120t-100.5 -87l-12 13q50 56 50 117q0 27 -25 42q-34 21 -34 62q0 33 21.5 52.5t54.5 19.5q11 0 22 -3t25.5 -11.5t24 -30.5t9.5 -54z" />
    <glyph glyph-name="semicolon" unicode="&#x37e;" horiz-adv-x="242" 
d="M212 394q0 -39 -24 -59t-57 -20q-32 0 -56.5 19.5t-24.5 58.5t24 59t58 20q32 0 56 -19.5t24 -58.5zM208 44q0 -64 -35.5 -120t-100.5 -87l-12 13q50 56 50 117q0 27 -25 42q-34 21 -34 62q0 33 21.5 52.5t54.5 19.5q11 0 22 -3t25.5 -11.5t24 -30.5t9.5 -54z" />
    <glyph glyph-name="question" unicode="?" horiz-adv-x="466" 
d="M421 518q0 -33 -8.5 -59.5t-28 -50t-37.5 -40l-49.5 -44t-51.5 -47.5q-16 -16 -21 -30.5t-5 -51.5h-54q0 3 -0.5 15t-0.5 26q0 29 7 50q8 22 33.5 59t44 77t18.5 85q0 117 -98 117q-57 0 -84 -39q-19 -19 -20 -59h-21q2 44 2 69q0 43 -2 59q99 11 148 11q228 0 228 -147z
M277 67q0 -39 -24 -59t-57 -20q-32 0 -56.5 19.5t-24.5 58.5t24 59t57 20q32 0 56.5 -19.5t24.5 -58.5z" />
    <glyph glyph-name="at" unicode="@" horiz-adv-x="810" 
d="M780 279q0 -140 -75 -214t-193 -74q-21 0 -33.5 1t-27 5.5t-21 15t-6.5 27.5q0 13 3 31l-5 -6q-4 -6 -7 -9.5l-9.5 -11t-12.5 -12.5l-14 -12t-16.5 -11.5t-18 -9t-21 -6.5t-22.5 -2q-41 0 -68.5 33.5t-27.5 106.5q0 112 50 189q55 85 148 85q39 0 87 -24l91 27l10 -8
q-13 -55 -33.5 -180t-20.5 -153q0 -25 26 -25q48 0 85 64.5t37 165.5q0 45 -14.5 85t-43.5 75t-81 55.5t-121 20.5q-59 0 -111 -16t-98 -51t-73 -100.5t-27 -155.5q0 -38 7.5 -74.5t27.5 -76.5t51.5 -69.5t84.5 -49t121 -19.5q120 0 224 44l9 -17q-108 -99 -266 -99
q-91 0 -160.5 29.5t-108.5 78.5t-57.5 105.5t-18.5 117.5q0 81 25.5 154t74.5 131.5t131 93t186 34.5q151 0 242 -79t91 -210zM466 350q-16 4 -27 4q-55 0 -82 -51q-36 -66 -36 -161q0 -17 1 -27.5t5 -23t14 -19t26 -6.5q8 0 16 3t15.5 7.5t12.5 8.5l11 9l5 5z" />
    <glyph glyph-name="A" unicode="A" horiz-adv-x="598" 
d="M613 -2q-43 3 -125 3q-90 0 -133 -3v18q33 0 47 12q9 8 9 21q0 15 -15 58l-47 138h-188l-51 -139q-16 -45 -16 -57q0 -13 9 -21q9 -9 45 -12v-18q-52 3 -95 3q-61 0 -93 -3v18q29 -1 49 29q9 13 49 109l208 504l73 13l180 -508q36 -102 47 -119q19 -29 47 -28v-18z
M333 289l-46 134q-24 72 -28 87l-82 -221h156z" />
    <glyph glyph-name="B" unicode="B" horiz-adv-x="592" 
d="M557 181q0 -77 -56 -127q-61 -56 -208 -56q-26 0 -75.5 1.5t-71.5 1.5q-58 0 -116 -3v18q30 0 49 22q12 14 15 39t3 94v344q0 82 -12 100q-15 22 -52 25v18q59 -3 111 -3q15 0 56.5 1t65.5 1q32 0 56 -1t57.5 -5t57 -14t46.5 -25t34.5 -41.5t11.5 -60.5q0 -39 -16 -69.5
t-36.5 -46.5t-47.5 -27t-40.5 -13.5t-23.5 -3.5h-1q91 -7 142 -45t51 -124zM387 496q0 42 -11 69.5t-31 37.5t-34.5 13t-35.5 3q-38 0 -47 -3v-247q1 0 8 -0.5t18 -1t23 -0.5q40 0 56 8q54 27 54 121zM413 183q0 143 -139 143q-35 0 -46 -1v-238q0 -24 6 -34.5t21 -12.5
q11 -2 40 -2q118 2 118 145z" />
    <glyph glyph-name="C" unicode="C" horiz-adv-x="595" 
d="M565 526h-20q0 36 -27 58q-37 32 -115 32q-33 0 -58 -4t-58 -20.5t-54.5 -46t-37 -86t-15.5 -134.5q0 -283 226 -283q81 0 112 37q21 23 21 61h20q-4 -58 -4 -107v-17q-66 -22 -169 -22q-202 0 -293 113q-63 79 -63 206q0 124 62 207.5t164 120.5q62 22 152 22
q34 0 71 -2.5t60.5 -5.5t25.5 -3q-2 -19 -2 -62q0 -38 2 -64z" />
    <glyph glyph-name="D" unicode="D" horiz-adv-x="704" 
d="M674 346q0 -83 -22.5 -146.5t-60.5 -100t-73.5 -55.5t-76.5 -30q-62 -16 -162 -16q-26 0 -68.5 1.5t-64.5 1.5q-58 0 -116 -3v18q30 0 49 22q12 14 15 39t3 94v344q0 82 -12 100q-15 22 -52 25v18q77 -4 111 -3q64 2 155 2q29 0 52.5 -1t64.5 -8t73 -18.5t68 -34.5
t60.5 -55t40.5 -82t16 -112zM524 332q0 281 -212 281q-56 0 -77 -5v-511q0 -48 26 -50q15 -3 55 -3q111 0 159.5 71.5t48.5 216.5z" />
    <glyph glyph-name="E" unicode="E" horiz-adv-x="524" 
d="M479 140l-3 -140h-280q-129 0 -166 -2v18q30 0 49 22q12 14 15 39t3 94v344q0 82 -12 100q-15 22 -52 25v18q55 -3 154 -3h286q-1 -81 3 -127h-21q-1 47 -34 66q-7 4 -16.5 7t-16.5 4.5t-20 2.5t-18.5 1h-21h-18.5h-75v-245h84q61 0 81 17q23 18 26 59h20q0 -6 -1 -34
t-1 -65q0 -28 3 -97h-20q-3 35 -23 54q-23 20 -87 20h-82v-221q0 -34 10.5 -42.5t51.5 -8.5h17q32 0 48 1t37.5 7t34.5 19q23 23 24 67h21z" />
    <glyph glyph-name="F" unicode="F" horiz-adv-x="486" 
d="M476 528h-21q-1 47 -34 66q-7 4 -16.5 7t-16.5 4.5t-20 2.5t-18.5 1h-21h-18.5h-75v-245h84q61 0 81 17q23 18 26 59h20q0 -6 -1 -34t-1 -65q0 -28 3 -97h-20q-3 35 -23 54q-23 20 -87 20h-82v-178q0 -79 13 -97q18 -27 71 -27v-18q-78 4 -153 4q-60 0 -135 -4l-1 18
q30 0 49 22q12 14 15 39t3 94v344q0 82 -12 100q-15 22 -52 25v18q55 -3 154 -3h286q-1 -81 3 -127z" />
    <glyph glyph-name="G" unicode="G" horiz-adv-x="669" 
d="M654 263q-29 0 -48 -22q-12 -14 -15.5 -39.5t-3.5 -93.5v-91q-72 -23 -191 -23q-194 0 -288 95q-78 80 -78 224q0 120 59.5 203.5t162.5 122.5q65 24 165 24q26 0 53.5 -1t47.5 -2.5t36.5 -3.5t25.5 -3l10 -1q-2 -19 -2 -62q0 -38 2 -64h-21q0 36 -26 59q-38 31 -136 31
q-36 0 -65 -5.5t-60.5 -24t-52.5 -49t-35 -85t-14 -128.5q0 -77 17 -133t40 -84.5t58 -44.5t59.5 -19.5t56.5 -3.5q26 0 40 2v97q0 82 -12 100q-15 22 -52 25v18q59 -3 133 -3q76 0 134 3v-18z" />
    <glyph glyph-name="H" unicode="H" horiz-adv-x="758" 
d="M728 640q-29 0 -48 -22q-12 -14 -15.5 -39.5t-3.5 -93.5v-344q0 -80 13 -100q15 -22 51 -25v-18q-59 3 -135 3t-134 -3v18q28 0 49 22q12 14 15 39t3 94v143h-288v-173q0 -80 13 -100q15 -22 51 -25v-18q-58 3 -135 3q-76 0 -134 -3v18q30 0 49 22q12 14 15 39t3 94v344
q0 82 -12 100q-15 22 -52 25v18q59 -3 135 -3t134 3v-18q-29 0 -48 -22q-12 -14 -15.5 -39.5t-3.5 -93.5v-116h288v146q0 82 -12 100q-15 23 -52 26v17q58 -3 135 -3q75 0 134 3v-18z" />
    <glyph glyph-name="I" unicode="I" horiz-adv-x="332" 
d="M302 640q-29 0 -48 -22q-12 -14 -15.5 -39.5t-3.5 -93.5v-344q0 -80 13 -100q15 -22 51 -25v-18q-58 3 -135 3q-76 0 -134 -3v18q30 0 49 22q12 14 15 39t3 94v344q0 82 -12 100q-15 22 -52 25v18q59 -3 135 -3t134 3v-18z" />
    <glyph glyph-name="J" unicode="J" horiz-adv-x="316" 
d="M301 640q-29 0 -48 -22q-12 -14 -15.5 -39.5t-3.5 -93.5v-492q0 -39 -1 -60.5t-11 -58.5t-30 -62q-61 -75 -198 -71l-1 14q56 11 76.5 45.5t24.5 83.5q2 33 2 184v447q0 82 -12 100q-15 22 -52 25v18q59 -3 135 -3q75 0 134 3v-18z" />
    <glyph glyph-name="K" unicode="K" horiz-adv-x="650" 
d="M664 -2q-58 3 -115 3q-13 0 -39 -0.5t-39 -0.5l-217 328l201 233q27 29 27 48q0 28 -41 32v16q39 -2 108 -2q71 0 110 2v-17q-42 -3 -101 -62l-190 -189l188 -277q35 -52 57.5 -73.5t51.5 -23.5zM302 640q-29 0 -48 -22q-12 -14 -15.5 -39.5t-3.5 -93.5v-344
q0 -80 13 -100q15 -22 51 -25v-18q-58 3 -135 3q-76 0 -134 -3v18q30 0 49 22q12 14 15 39t3 94v344q0 82 -12 100q-15 22 -52 25v18q59 -3 135 -3t134 3v-18z" />
    <glyph glyph-name="L" unicode="L" horiz-adv-x="493" 
d="M473 140l-3 -140h-274q-129 0 -166 -2v17q31 2 49 23q12 14 15 39t3 94v344q0 82 -12 100q-15 22 -52 25v18q59 -3 146 -3q90 0 148 3v-18q-58 -3 -78 -30q-10 -13 -12 -35t-2 -80v-14v-383q0 -34 10.5 -42.5t51.5 -8.5h17q31 0 46.5 1t35 7t32.5 19q23 23 24 66h21z" />
    <glyph glyph-name="M" unicode="M" horiz-adv-x="847" 
d="M822 -2q-78 4 -133 4q-87 0 -130 -4v18q31 3 48 22q14 16 14 73l-16 450q-9 -33 -19 -58l-197 -507h-29l-178 507q-14 39 -19 59q-17 -429 -17 -448q0 -55 8 -69q13 -26 51 -29v-18q-52 4 -99 4q-48 0 -91 -4v18q30 2 48 23q11 12 14.5 35t6.5 89l16 334q3 42 3 67
q0 36 -10 51q-15 23 -52 26v17q60 -3 129 -3q70 0 92 3l140 -396q8 -20 15 -50q6 24 16 49l156 397q22 -3 98 -3q83 0 115 3v-17q-32 -2 -49 -23q-14 -16 -14 -62q0 -21 2 -63l14 -344q3 -89 16 -107q15 -23 51 -26v-18z" />
    <glyph glyph-name="N" unicode="N" horiz-adv-x="703" 
d="M688 640q-29 0 -48 -22q-12 -14 -15.5 -39.5t-3.5 -93.5v-490h-49l-389 507q-19 25 -24 37v-401q0 -76 13 -96q15 -23 51 -26v-18q-78 4 -93 4q-57 0 -100 -4v18q30 0 49 22q12 14 15 39t3 94v344q0 82 -12 100q-15 22 -52 25v18q59 -3 113 -3q42 0 83 3l298 -387
q18 -23 32 -48v292q0 82 -12 100q-15 23 -52 26v17q78 -4 97 -4q53 0 96 4v-18z" />
    <glyph glyph-name="O" unicode="O" horiz-adv-x="729" 
d="M699 337q0 -159 -91 -253t-247 -94t-243.5 87.5t-87.5 240.5q0 157 92.5 251t247.5 94q154 0 241.5 -87.5t87.5 -238.5zM550 323q0 138 -49.5 217t-135.5 79q-89 0 -137.5 -75.5t-48.5 -216.5q0 -135 50 -214t136 -79q85 0 135 75.5t50 213.5z" />
    <glyph glyph-name="P" unicode="P" horiz-adv-x="562" 
d="M557 481q0 -91 -63.5 -141.5t-153.5 -50.5q-55 0 -69 9v19h19q42 0 71 21q49 37 49 132q0 51 -13 83.5t-37 45t-41.5 16t-43.5 3.5q-31 0 -40 -2v-474q0 -81 13 -99q17 -26 71 -26v-19q-59 3 -154 3q-103 0 -135 -3v18q28 0 49 22q12 14 15 39.5t3 94.5v341q0 83 -12 101
q-15 23 -52 26v18q59 -3 120 -3q27 0 73.5 1.5t77.5 1.5q64 0 113 -11q140 -33 140 -166z" />
    <glyph glyph-name="Q" unicode="Q" horiz-adv-x="736" 
d="M1171 -121q-50 -53 -111.5 -73.5t-112.5 -20.5q-55 0 -121 17.5t-115.5 37.5t-115 56.5t-91.5 53l-74 47.5q-33 -6 -69 -6q-156 0 -243.5 87t-87.5 240q0 157 92.5 251t247.5 94q154 0 241.5 -87.5t87.5 -238.5q0 -102 -39 -179t-110 -119q137 -79 267.5 -125t224.5 -46
q61 0 123 20zM550 322q0 138 -49.5 217.5t-135.5 79.5q-89 0 -137.5 -76t-48.5 -217q0 -136 50 -215t136 -79q85 0 135 76t50 214z" />
    <glyph glyph-name="R" unicode="R" horiz-adv-x="641" 
d="M686 0q-25 -5 -106 -5q-15 0 -29 1.5t-24.5 3t-21.5 6l-17.5 7t-15.5 9l-13 9.5t-12 12t-10.5 11.5t-10.5 13t-10 12.5q-72 91 -145 199h-43v-138q0 -80 13 -100q15 -22 51 -25v-18q-58 3 -131 3t-131 -3v18q30 0 49 22q12 14 15 39t3 94v344q0 82 -12 100q-15 22 -52 25
v18q59 -3 106 -3q37 0 80.5 1.5t74.5 1.5q70 0 110 -10q43 -11 72.5 -33t41 -48.5t15.5 -43.5t4 -32q0 -69 -38 -116.5t-106 -69.5l168 -194q31 -35 46.5 -50.5t37 -29.5t41.5 -15v-16zM393 473q0 40 -9.5 69t-21.5 43t-31.5 22.5t-31 10t-28.5 1.5q-22 0 -43 -3v-296
q8 -2 47 -4q26 0 39 3q79 17 79 154z" />
    <glyph glyph-name="S" unicode="S" horiz-adv-x="484" 
d="M444 183q0 -93 -66.5 -142t-179.5 -49q-103 0 -164 20v17q0 53 -4 111h20q6 -47 38 -71q39 -32 99 -32q36 0 62.5 9.5t39 21.5t19.5 29.5t8 26.5t1 19q0 29 -12.5 51.5t-27 34t-45.5 31.5q-7 5 -11 7l-56 36q-59 38 -89 79.5t-30 104.5q0 17 4 36t18.5 45t38 46t68 34
t103.5 14q41 0 72 -2t54.5 -5.5t26.5 -3.5q-2 -9 -2 -54q0 -24 1 -46.5t1 -24.5h-21q-3 36 -27 60q-32 32 -102 32q-115 0 -115 -94q0 -36 19.5 -59t64.5 -51l64 -39q68 -42 99 -82t31 -110z" />
    <glyph glyph-name="T" unicode="T" horiz-adv-x="495" 
d="M515 526h-21q-1 50 -34 69q-27 16 -111 16h-30v-469q0 -81 13 -99q17 -26 71 -26v-19q-59 3 -154 3q-97 0 -155 -3v18q47 0 69 24q12 14 15 38t3 93v440h-30q-84 0 -111 -16q-33 -19 -34 -69h-21l3 129h524q-1 -83 3 -129z" />
    <glyph glyph-name="U" unicode="U" horiz-adv-x="694" 
d="M684 640q-29 0 -48 -22q-12 -14 -16 -40.5t-4 -92.5v-180v-26.5v-30t-0.5 -26.5t-2 -29t-3.5 -25.5t-5 -27.5t-8 -24q-26 -63 -85.5 -94t-168.5 -31q-116 0 -172.5 34t-79.5 92q-17 45 -17 161v237q0 82 -12 100q-15 22 -52 25v18q58 -3 135 -3q75 0 134 3v-18
q-29 0 -48 -22q-12 -14 -15.5 -39.5t-3.5 -93.5v-226q0 -47 2 -75t10 -60t24 -48.5t45.5 -28t71.5 -11.5q36 0 63 7t43.5 24t26.5 34t14.5 47.5t5.5 54t1 63.5v249q0 82 -12 100q-15 23 -52 26v17q58 -3 108 -3q61 0 121 3v-18z" />
    <glyph glyph-name="V" unicode="V" horiz-adv-x="588" 
d="M633 640q-29 1 -49 -29q-13 -19 -49 -109l-207 -504l-74 -13l-180 508q-36 102 -47 119q-19 29 -47 28v18q43 -3 125 -3q89 0 133 3v-18q-33 0 -47 -12q-9 -8 -9 -21q0 -15 15 -58l109 -312q19 -53 28 -87l32 87l117 313q16 45 16 57q0 13 -9 21q-9 9 -45 12v18
q53 -3 95 -3q61 0 93 3v-18z" />
    <glyph glyph-name="W" unicode="W" horiz-adv-x="910" 
d="M955 640q-29 1 -49 -29q-10 -14 -43 -110l-175 -503l-76 -14l-124 392q-18 62 -20 76l-24 -72l-121 -381l-88 -15l-161 509q-33 105 -42 119q-19 29 -47 28v18q43 -3 126 -3q89 0 132 3v-18q-33 0 -47 -12q-9 -8 -9 -21q0 -19 12 -58l93 -312q21 -67 22 -86l27 82
l137 423l56 8l132 -427q17 -56 23 -85l26 85l94 313q13 42 13 57q0 13 -9 21q-9 9 -45 12v18q53 -3 96 -3t91 3v-18z" />
    <glyph glyph-name="X" unicode="X" horiz-adv-x="631" 
d="M631 -2q-100 4 -134 4q-81 0 -135 -4v18q27 0 41 13q10 10 10 23q0 18 -19 47l-115 179l-109 -174q-21 -33 -21 -56q0 -14 9 -21q14 -11 37 -11v-18q-72 4 -99 4q-28 0 -96 -4v17q27 3 51 32q11 13 53 70l147 205l-140 218q-44 68 -60 84q-17 16 -37 16v18q71 -4 132 -4
q84 0 138 4v-18q-26 0 -40 -13q-10 -10 -10 -23q0 -20 18 -47l94 -145l86 140q22 35 22 55q0 14 -10 22q-10 9 -36 11v18q60 -4 96 -4q46 0 94 4v-18q-13 -1 -24 -7t-14 -9t-13 -14q-11 -13 -52 -70l-122 -170l163 -254q47 -72 59 -83q17 -17 36 -17v-18z" />
    <glyph glyph-name="Y" unicode="Y" horiz-adv-x="549" 
d="M594 640q-6 0 -11 -1.5t-9.5 -4t-8 -4t-7.5 -5.5l-5.5 -5.5l-5.5 -5.5l-4 -5q-16 -18 -46 -72l-145 -253v-142q0 -79 13 -99q18 -26 72 -26v-19q-59 3 -154 3q-96 0 -156 -3v18q48 0 69 24q12 14 15.5 39t3.5 92v97l-149 272q-37 67 -54 84q-17 16 -37 16v18
q50 -4 132 -4q103 0 134 4v-18q-23 0 -38 -11q-12 -10 -12 -24q0 -16 17 -48l117 -224l106 219q18 36 18 53q0 12 -8 22q-13 11 -42 13v18q38 -4 100 -4q56 0 95 4v-18z" />
    <glyph glyph-name="Z" unicode="Z" horiz-adv-x="561" 
d="M531 625l-349 -577h193q90 0 115 34q15 19 17 58h21l-3 -140h-501v33l345 574h-157q-32 0 -47.5 -1t-34 -6.5t-31.5 -16.5q-23 -20 -23 -57h-21l3 128h472z" />
    <glyph glyph-name="bracketleft" unicode="[" horiz-adv-x="343" 
d="M263 -268h-188v1000h188v-54h-84v-891h84v-55z" />
    <glyph glyph-name="bracketright" unicode="]" horiz-adv-x="343" 
d="M268 -268h-188v55h84v891h-84v54h188v-1000z" />
    <glyph glyph-name="a" unicode="a" horiz-adv-x="514" 
d="M509 60q-48 -66 -126 -66q-72 0 -87 63q-54 -65 -136 -65q-35 0 -61.5 10.5t-39.5 24t-21 33t-9.5 31.5t-1.5 24q0 70 65 105q10 5 22.5 9.5t22.5 7t27.5 4.5t25.5 3t28.5 1.5t24.5 0.5h27h22v25q0 66 -6 85q-19 56 -89 56q-63 0 -100 -54l-21 16q4 11 12.5 24t27 31.5
t54 31t80.5 12.5q48 0 82 -10.5t51.5 -29t24 -30.5t11.5 -28q8 -23 8 -103q-3 -77 -3 -136q0 -16 1 -25t4.5 -21.5t13 -19t24.5 -6.5q13 0 29 9zM292 75v138q-63 0 -89 -15q-12 -7 -18 -11.5t-13.5 -20t-7.5 -37.5q0 -33 18 -52t51 -19q34 0 59 17z" />
    <glyph glyph-name="b" unicode="b" horiz-adv-x="588" 
d="M558 245q0 -93 -46 -158q-68 -96 -203 -96q-94 0 -152 34l-69 -37l-14 8q5 45 5 186v382q0 86 -11 102q-12 17 -53 21v18q65 0 135 11q26 4 64 13l5 -5q-4 -48 -4 -186v-120q46 55 140 55q85 0 144 -56.5t59 -171.5zM411 227q0 189 -125 189q-48 0 -71 -21v-326
q23 -38 80 -38q116 0 116 196z" />
    <glyph glyph-name="c" unicode="c" horiz-adv-x="442" 
d="M437 435l-52 -79h-10q-1 1 -6.5 12.5l-8.5 17.5t-11.5 16.5t-17 16.5t-22.5 10.5t-30 4.5q-17 0 -29.5 -4t-31.5 -19.5t-30 -57t-11 -105.5q0 -100 35 -146.5t109 -46.5q58 0 100 22l10 -13q-60 -71 -174 -71q-29 0 -55.5 4t-59.5 18.5t-56.5 37.5t-39.5 66.5t-16 100.5
q0 112 68 182.5t187 70.5q50 0 94 -9t58 -19v-10z" />
    <glyph glyph-name="d" unicode="d" horiz-adv-x="597" 
d="M573 14q-48 2 -121 -9q-61 -10 -73 -15l-4 3v54q-20 -25 -59 -40.5t-83 -15.5q-85 0 -144 56.5t-59 171.5q0 67 24 121q29 63 88 98t136 35q58 0 95 -13v104q0 86 -11 102q-12 17 -53 21v18q65 0 135 11q26 4 64 13l5 -5q-4 -48 -4 -186v-383q0 -88 10 -102
q12 -17 54 -21v-18zM373 69v326q-23 38 -80 38q-116 0 -116 -195q0 -190 125 -190q48 0 71 21z" />
    <glyph glyph-name="e" unicode="e" horiz-adv-x="482" 
d="M457 265h-291v-4q0 -64 13 -103q11 -34 29.5 -56t42.5 -31t43 -12t43 -3q61 0 96 21l10 -13q-66 -71 -182 -71q-231 0 -231 229q0 13 0.5 25.5t5.5 39.5t13.5 49.5t26 49t41.5 45t62 31t86 12.5q112 0 159 -69q33 -48 33 -133v-7zM320 309v7q0 119 -75 119
q-37 0 -57.5 -25t-20.5 -101h153z" />
    <glyph glyph-name="f" unicode="f" horiz-adv-x="345" 
d="M480 688l-49 -75h-10q0 1 -4.5 9t-6.5 12t-7.5 12.5t-10 13t-12.5 11.5t-16 10.5t-19.5 6t-23.5 2.5q-55 0 -76 -39q-4 -7 -7 -15.5t-4.5 -21l-2.5 -21.5t-1.5 -26.5t-0.5 -26.5v-30.5v-29.5v-14h110v-50h-110v-272q0 -82 13 -101q18 -25 77 -25v-20q-59 3 -155 3
q-106 0 -138 -3v18q30 0 49 22q12 14 15 39t3 94v245h-62v23q48 20 62 32q0 83 19 133q47 123 207 123q107 0 161 -29v-10z" />
    <glyph glyph-name="g" unicode="g" horiz-adv-x="536" 
d="M541 399l-123 15l4 -4l7.5 -7.5t7.5 -8.5t8 -11.5l7.5 -14t7 -17t4 -19.5t1.5 -23q0 -74 -56.5 -119t-160.5 -45q-26 0 -50 3q-18 -17 -18 -42q0 -38 51 -38q16 0 65.5 1t65.5 1q161 0 161 -134q0 -80 -77 -140.5t-216 -60.5q-111 0 -168 31t-57 85q0 29 14.5 52t37 35.5
t39 18.5t32.5 9q-25 10 -38 30.5t-13 42.5q0 74 92 115q-128 31 -128 153q0 73 56.5 119.5t157.5 46.5q55 0 105 -18l181 22v-78zM338 313q0 63 -24 96t-61 33q-29 0 -45 -11q-43 -27 -43 -126q0 -61 24 -93.5t61 -32.5q28 0 46 11q42 28 42 123zM419 -107q0 18 -7 31
t-15.5 19t-28 9.5t-30 3.5h-36.5h-14h-130l-6 -4q-7 -5 -11.5 -8.5t-11.5 -11t-11.5 -15.5t-8 -19t-3.5 -23q0 -31 15 -52t39 -30t43 -12t38 -3q80 0 129 29t49 86z" />
    <glyph glyph-name="h" unicode="h" horiz-adv-x="618" 
d="M597 -2q-59 3 -134 3q-70 0 -129 -3v17q27 4 43 20q6 6 10 13.5t5.5 18t2 18t1 22.5t0.5 23q1 18 1 80q0 76 -3 107q-1 21 -4.5 35.5t-12.5 30.5t-28 24.5t-47 8.5q-50 0 -75 -20v-255q0 -81 10 -98q15 -25 50 -27v-18q-59 3 -130 3q-75 0 -133 -3v18q30 0 49 22
q12 14 15 39t3 94v393q0 86 -11 102q-12 17 -53 21v18q65 0 135 11q26 4 64 13l5 -5q-4 -48 -4 -186v-119q55 55 149 55q123 0 150 -102q7 -28 7 -89v-142q0 -80 13 -100q15 -22 51 -25v-18z" />
    <glyph glyph-name="i" unicode="i" horiz-adv-x="318" 
d="M237 617q0 -31 -19.5 -51t-56.5 -20q-36 0 -55.5 20t-19.5 50q0 31 19.5 51.5t56.5 20.5q36 0 55.5 -20.5t19.5 -50.5zM294 -2q-58 3 -134 3q-74 0 -133 -3v18q30 0 49 22q12 14 15 39t3 94v137q0 86 -11 103t-53 21v19q50 -3 136 9q37 4 62 12l6 -3q-4 -47 -4 -190v-138
q0 -80 13 -100q15 -22 51 -25v-18z" />
    <glyph glyph-name="j" unicode="j" horiz-adv-x="293" 
d="M228 617q0 -31 -19.5 -51t-56.5 -20q-36 0 -55.5 20t-19.5 50q0 31 19.5 51.5t56.5 20.5q36 0 55.5 -20.5t19.5 -50.5zM225 469q-4 -47 -4 -190v-286q0 -39 -1 -60.5t-11 -58.5t-30 -62q-61 -75 -198 -71l-1 14q94 18 103 129q2 33 2 184v240q0 86 -11 103t-53 21v19
q50 -3 136 9q37 4 62 12z" />
    <glyph glyph-name="k" unicode="k" horiz-adv-x="586" 
d="M596 -2q-60 3 -118 3q-14 0 -41 -0.5t-40 -0.5l-151 235l133 128q35 34 35 55q0 14 -9 22q-11 8 -33 9v17q39 -2 107 -2q51 0 109 3v-18q-28 -1 -106 -63l-116 -92l121 -182q34 -51 57 -73t52 -24v-17zM291 -2q-39 2 -134 2q-94 0 -133 -2v17q31 2 49 23q12 14 15 39
t3 94v393q0 86 -11 102q-12 17 -53 21v18q65 0 135 11q26 4 64 13l5 -5q-4 -48 -4 -186v-397q0 -80 13 -100q15 -23 51 -26v-17z" />
    <glyph glyph-name="l" unicode="l" horiz-adv-x="317" 
d="M293 -2q-59 3 -134 3t-133 -3v18q30 0 49 22q12 14 15 39t3 94v393q0 86 -11 102q-12 17 -53 21v18q65 0 135 11q26 4 64 13l5 -5q-4 -48 -4 -186v-397q0 -80 13 -100q15 -22 51 -25v-18z" />
    <glyph glyph-name="m" unicode="m" horiz-adv-x="924" 
d="M903 -2q-59 3 -134 3q-71 0 -129 -3v17q27 4 43 20q6 6 10 13.5t5.5 18t2 18t1 22.5t0.5 23q1 18 1 80q0 68 -3 105q-2 21 -4.5 33.5t-11 30t-29 26.5t-51.5 9q-53 0 -84 -22q4 -9 7 -20q7 -28 7 -89v-142q0 -81 10 -98q15 -25 50 -27v-18q-58 3 -130 3q-70 0 -129 -3v17
q27 4 43 20q6 6 10 13.5t5.5 18t2 18t1 22.5t0.5 23q1 18 1 80q0 70 -3 107q-3 45 -21 72t-70 27q-49 0 -74 -20v-255q0 -81 10 -98q15 -25 50 -27v-18q-58 3 -130 3q-74 0 -133 -3v18q30 0 49 22q12 14 15 39t3 94v137q0 86 -11 103t-53 21v19q46 -3 130 9q37 4 62 12l6 -3
v-51q56 56 149 56q97 0 133 -63q65 65 168 65q127 0 154 -102q7 -29 7 -91v-142q0 -80 13 -100q15 -22 51 -25v-18z" />
    <glyph glyph-name="n" unicode="n" horiz-adv-x="621" 
d="M600 -2q-58 3 -134 3q-70 0 -129 -3v17q27 4 43 20q6 6 10 13.5t5.5 18t2 18t1 22.5t0.5 23q1 18 1 80q0 76 -3 107q-1 21 -4.5 35.5t-12.5 30.5t-28 24.5t-47 8.5q-50 0 -75 -20v-255q0 -81 10 -98q15 -25 50 -27v-18q-58 3 -130 3q-74 0 -133 -3v18q30 0 49 22
q12 14 15 39t3 94v137q0 86 -11 103t-53 21v19q46 -3 130 9q37 4 62 12l6 -3v-51q56 56 151 56q123 0 150 -102q7 -28 7 -89v-142q0 -80 13 -100q15 -22 51 -25v-18z" />
    <glyph glyph-name="o" unicode="o" horiz-adv-x="564" 
d="M534 238q0 -45 -12.5 -86t-40 -79.5t-80 -61.5t-124.5 -23q-119 0 -183 64.5t-64 176.5q0 29 5.5 59t23 65.5t44.5 62.5t75 45t110 18q120 0 183 -65.5t63 -175.5zM387 234q0 58 -9 100t-20.5 62t-29.5 31t-27 12.5t-22 1.5q-34 0 -58 -24q-44 -48 -44 -185q0 -58 9 -100
t20.5 -61.5t29 -30.5t27 -12t22.5 -1q34 0 58 24q44 46 44 183z" />
    <glyph glyph-name="p" unicode="p" horiz-adv-x="597" 
d="M567 245q0 -84 -38 -146q-66 -108 -211 -108q-52 0 -94 11v-101q0 -82 13 -101q18 -25 77 -25v-20q-51 3 -159 3q-106 0 -134 -3v18q30 0 49 22q12 14 15 39t3 94v380q0 86 -11 103t-53 21v19q46 -3 130 9q37 4 62 12l6 -3v-53q50 57 142 57q85 0 144 -56.5t59 -171.5z
M420 227q0 189 -125 189q-48 0 -71 -21v-326q23 -38 80 -38q116 0 116 196z" />
    <glyph glyph-name="q" unicode="q" horiz-adv-x="590" 
d="M569 -245q-58 3 -130 3q-75 0 -133 -3v18q30 0 49 22q12 14 15 39t3 94v118q-46 -55 -140 -55q-85 0 -144 56.5t-59 171.5q0 70 26 124q29 62 87.5 96t134.5 34q95 0 153 -34l69 37l14 -8q-5 -45 -5 -186v-384q0 -81 10 -98q15 -25 50 -27v-18zM373 69v326q-23 38 -80 38
q-116 0 -116 -195q0 -190 125 -190q48 0 71 21z" />
    <glyph glyph-name="r" unicode="r" horiz-adv-x="442" 
d="M452 430l-59 -106h-9l-2 4q-2 3 -4 7t-6 10t-8.5 11.5t-10.5 11.5t-13.5 11t-15.5 9t-18 6.5t-21 2.5q-35 0 -55 -12v-241q0 -82 13 -101q18 -25 77 -25v-20q-51 3 -159 3q-106 0 -134 -3v18q30 0 49 22q12 14 15 39t3 94v137q0 86 -11 103t-53 21v19q46 -3 130 9
q37 4 62 12l6 -3v-64q47 67 130 67q62 0 94 -32v-10z" />
    <glyph glyph-name="s" unicode="s" horiz-adv-x="412" 
d="M372 138q0 -59 -46 -102t-152 -43q-84 0 -134 19v26q0 44 -5 91h21q3 -42 31 -69q30 -27 81 -27q87 0 87 62q0 17 -9 31t-18 21t-28 18l-72 43q-45 27 -63 55.5t-18 71.5q0 65 56 105q48 33 118 33q21 0 42.5 -1t37 -2.5t28 -3t19.5 -2.5l8 -1q-3 -16 -3 -56
q0 -10 0.5 -22t0.5 -19t1 -14h-21q-1 34 -24 58q-25 25 -70 25q-80 0 -80 -58q0 -25 13.5 -39.5t42.5 -30.5l69 -39q87 -48 87 -130z" />
    <glyph glyph-name="t" unicode="t" horiz-adv-x="390" 
d="M384 44q-49 -51 -148 -51q-123 0 -144 90q-6 27 -6 104q0 138 2 229h-63v23q64 28 87 47q60 50 99 96h12v-116h159v-50h-159v-203v-24v-25.5t1 -22.5t2.5 -23t5 -19t8.5 -19t12.5 -14t17 -12t22 -6t28.5 -3q24 0 56 12z" />
    <glyph glyph-name="u" unicode="u" horiz-adv-x="615" 
d="M591 14q-48 2 -121 -9q-61 -10 -73 -15l-4 3v53q-56 -56 -151 -56q-125 0 -151 99q-6 21 -6 92v127q0 86 -11 103t-53 21v19q50 -3 135 9q37 4 62 12l6 -3q-3 -51 -3 -167q0 -101 2 -136q0 -1 1 -15t1.5 -18t2 -17t4.5 -18t7.5 -15t11.5 -14.5l16 -10.5t21.5 -8t27.5 -2
q48 0 75 20v240q0 86 -11 103t-53 21v19q50 -3 135 9q37 4 62 12l6 -3q-3 -35 -3 -184v-130q0 -88 10 -102q12 -17 54 -21v-18z" />
    <glyph glyph-name="v" unicode="v" horiz-adv-x="496" 
d="M521 449q-29 2 -49 -28q-3 -4 -7.5 -13.5l-9.5 -20l-6 -12.5l-163 -376l-71 -9l-154 387q-10 28 -20 45q-19 29 -47 27v17q44 -3 127 -3q79 0 122 3v-16q-25 0 -38 -9q-13 -8 -13 -24t16 -57l46 -122q25 -65 37 -110l88 232q16 43 16 57q0 16 -11 22q-12 10 -38 10v18
q58 -4 83 -4q32 0 92 4v-18z" />
    <glyph glyph-name="w" unicode="w" horiz-adv-x="764" 
d="M779 449q-29 2 -49 -28q-9 -13 -45 -110l-116 -313l-85 -14l-80 241q-17 49 -20 76l-24 -76l-74 -226l-95 -14l-103 318q-34 107 -42 119q-19 29 -47 27v17q43 -3 120 -3q83 0 127 3v-16q-28 0 -42 -10q-12 -9 -12 -25q0 -17 13 -57l46 -150q21 -66 23 -86l27 86l84 255
l71 12l85 -271q20 -65 23 -85l74 239q13 40 13 57t-13 25q-11 9 -41 9v18q70 -4 93 -4q46 0 89 4v-18z" />
    <glyph glyph-name="x" unicode="x" horiz-adv-x="538" 
d="M538 -2q-100 4 -132 4q-82 0 -136 -4v18q28 0 40 13q10 8 10 23q0 19 -21 47l-69 92l-58 -88q-24 -37 -24 -53q0 -14 9 -23q6 -6 19 -9t18 -2v-18q-45 3 -91 3q-43 0 -94 -3v17q28 3 51 31q11 11 56 70l87 111l-92 123q-57 76 -63 82q-15 15 -36 17v17q64 -3 122 -3
q90 0 133 3v-17q-18 -2 -27 -10q-11 -8 -11 -25q0 -18 22 -48l55 -74l46 71q23 35 23 53q0 15 -8 22q-11 11 -29 11v17q45 -3 80 -3q13 0 28 0.5t33 1.5t29 1v-17q-28 -2 -51 -30q-11 -11 -56 -70l-70 -90l108 -145q54 -72 63 -81q17 -17 36 -17v-18z" />
    <glyph glyph-name="y" unicode="y" horiz-adv-x="487" 
d="M511 449q-31 1 -48 -29q-6 -8 -25 -55l-151 -414q-19 -50 -35.5 -83.5t-43 -67.5t-64.5 -51t-88 -17q-79 0 -122 39v10l48 61h9q29 -56 84 -56q46 0 75.5 28t59.5 108l11 29l-172 425q-1 2 -5.5 13t-8.5 19.5l-6 12.5q-18 30 -48 28v17q44 -3 127 -3q78 0 122 3v-17
q-26 0 -37 -8q-14 -9 -14 -24q0 -16 16 -57l58 -147q23 -58 37 -109l78 253q15 48 15 59q0 16 -12 23q-12 10 -38 10v18q58 -4 85 -4q33 0 93 4v-18z" />
    <glyph glyph-name="z" unicode="z" horiz-adv-x="447" 
d="M419 130l-3 -130h-392v33l240 392h-75q-69 0 -91 -12q-33 -18 -33 -61h-21l3 113h370v-28l-242 -393h99q72 0 95 17q26 20 29 69h21z" />
    <glyph glyph-name="sterling" unicode="&#xa3;" 
d="M544 119q-13 -52 -41 -94q-37 -55 -93 -55q-41 0 -130 27l-129 39q-24 8 -36 8q-35 -61 -83 -61q-14 0 -23 7.5t-9 19.5q0 21 24.5 39t66.5 26q19 49 19 151v96h-89v48h89v70q0 85 17 125q14 32 40 53q62 52 189 52q51 0 99.5 -8.5t69.5 -20.5v-10l-49 -77h-10
q-38 77 -113 77q-17 0 -31 -3t-24.5 -8t-18.5 -13t-13 -15t-9 -17.5t-5.5 -17.5t-2.5 -18.5t-1 -16.5v-15v-11v-126h213v-48h-213v-48q0 -56 -19.5 -93.5t-59.5 -73.5q-11 -11 -44 -33q52 28 112 28q33 0 84 -12l74 -17q38 -8 53 -8q27 0 43 13.5t34 48.5z" />
    <glyph glyph-name="currency" unicode="&#xa4;" 
d="M489 622l-51 -77h-10q0 1 -4.5 11t-7 14.5t-8.5 14t-13 15l-16 12t-21 9.5t-26 3q-88 0 -88 -99q0 -70 32 -93.5t100 -23.5h76v-41h-368v41h173q-15 2 -26.5 4t-38 10t-44 19.5t-32 33t-14.5 49.5q0 14 2 26.5t14.5 34.5t34 37t66 26.5t105.5 11.5q51 0 101.5 -9
t63.5 -19v-10zM494 31q-28 -21 -82.5 -30.5t-99.5 -9.5q-26 0 -45 1t-50 5t-53.5 14t-44.5 25.5t-34 42t-12 60.5q0 117 161 139q4 1 6 1h-156v40h368v-40h-93q-26 0 -41 -1t-37 -8t-34 -20t-21 -39t-9 -63q0 -35 11 -60.5t23 -36.5t32 -17t25.5 -6h15.5q24 0 42 7.5t31 24
t19 27t16 33.5h10l52 -79v-10z" />
    <glyph glyph-name="yen" unicode="&#xa5;" horiz-adv-x="549" 
d="M594 640q-6 0 -11 -1.5t-9.5 -4t-8 -4t-7.5 -5.5l-5.5 -5.5l-5.5 -5.5l-4 -5q-12 -14 -46 -72l-134 -233h106v-36h-117v-37h117v-35h-117v-54q0 -79 13 -99q18 -26 72 -26v-19q-59 3 -154 3q-96 0 -156 -3v18q48 0 69 24q12 14 15.5 39t3.5 92v25h-113v35h113v37h-113v36
h93l-129 236q-35 65 -54 84q-17 16 -37 16v18q50 -4 132 -4q103 0 134 4v-18q-23 0 -38 -11q-12 -10 -12 -24q0 -16 17 -48l117 -224l106 219q18 36 18 53q0 12 -8 22q-13 11 -42 13v18q38 -4 100 -4q56 0 95 4v-18z" />
    <glyph glyph-name="section" unicode="&#xa7;" horiz-adv-x="500" 
d="M470 250q0 -33 -15 -60.5t-32.5 -42.5t-42.5 -28t-34.5 -16t-20.5 -6q93 -53 93 -139q0 -69 -50.5 -106.5t-142.5 -37.5q-50 0 -94 9t-58 19v11l52 79h10q7 -15 12.5 -23.5t18 -24t31.5 -23.5t43 -8q73 0 73 62q0 24 -13.5 42t-46.5 39l-131 83q-29 18 -45.5 32.5
t-31.5 43.5t-15 66q0 19 4.5 36t12.5 30t18 24.5t22 20t23 15.5t23 12t19.5 7.5t15.5 5.5l7 2q-93 53 -93 139q0 69 50.5 106.5t142.5 37.5q50 0 94 -9t58 -19v-10l-52 -79h-10q-8 16 -12.5 23.5t-17.5 23.5t-32 23.5t-43 7.5q-73 0 -73 -62q0 -24 13.5 -42t46.5 -39
l131 -83q28 -17 45 -32t32 -44t15 -66zM354 208q0 27 -13.5 48.5t-28 32t-50.5 32.5l-64 39q-52 -38 -52 -97q0 -28 13.5 -49t28 -31.5t50.5 -32.5l64 -39q52 38 52 97z" />
    <glyph glyph-name="AE" unicode="&#xc6;" horiz-adv-x="761" 
d="M716 140l-3 -140h-276q-129 0 -166 -2v18q30 0 49 22q12 14 15 39t3 94v140h-132l-92 -175q-32 -62 -32 -83q0 -17 14 -26q11 -7 44 -12v-17q-66 2 -104 2q-68 0 -100 -2v17q28 5 46.5 23.5t41.5 59.5l314 559q26 -2 97 -2h275q-1 -81 3 -127h-21q-1 47 -34 66
q-7 4 -16.5 7t-16.5 4.5t-20 2.5t-18.5 1h-21h-18.5h-75v-256h85q59 0 81 17q22 18 26 59h20q-3 -66 -3 -97q0 -26 3 -95h-20q-3 35 -23 54q-23 20 -87 20h-82v-214q0 -34 10.5 -42.5t51.5 -8.5h17q32 0 48 1t37.5 7t34.5 19q23 23 24 67h21zM338 353v216q-12 -29 -28 -59
l-82 -158z" />
    <glyph glyph-name="Oslash" unicode="&#xd8;" horiz-adv-x="729" 
d="M699 337q0 -159 -91 -253t-247 -94q-61 0 -119 16l-41 -81l-50 24l39 77q-160 79 -160 292q0 157 92.5 251t247.5 94q69 0 134 -21l39 77l51 -24l-39 -76q144 -82 144 -282zM550 323q0 126 -42 204l-236 -462q42 -31 93 -31q85 0 135 75.5t50 213.5zM471 577
q-44 42 -106 42q-89 0 -137.5 -75.5t-48.5 -216.5q0 -140 53 -218z" />
    <glyph glyph-name="germandbls" unicode="&#xdf;" horiz-adv-x="628" 
d="M603 138q0 -59 -46 -102t-152 -43q-84 0 -134 19v26q0 44 -5 91h21q3 -42 31 -69q30 -27 81 -27q87 0 87 62q0 17 -9 31t-18 21t-28 18l-72 43q-46 27 -62 56.5t-16 68.5q0 29 14.5 55t28 39t41.5 35q47 39 65.5 68t18.5 74q0 97 -112 97q-21 0 -38 -3t-28.5 -11.5
t-20 -15.5t-13.5 -23t-8 -24.5t-4.5 -30t-1.5 -30.5v-34v-17v-254q0 -172 3 -259q-5 1 -83 1q-84 0 -123 -2v18q30 0 49 22q12 14 15 39t3 94v215q0 167 6 201q29 156 257 156q35 0 67.5 -4t74 -16t67 -40.5t25.5 -70.5q0 -29 -9.5 -51t-30.5 -39t-35.5 -25.5t-44.5 -23.5
l-19 -9q-19 -9 -24.5 -13t-18 -14t-17 -21.5t-4.5 -26.5q0 -30 14 -45.5t52 -36.5l69 -39q87 -48 87 -130z" />
    <glyph glyph-name="ae" unicode="&#xe6;" horiz-adv-x="734" 
d="M709 265h-291q0 -51 9 -91q14 -59 52 -88.5t110 -29.5q61 0 96 21l10 -13q-66 -71 -182 -71q-144 0 -188 87q-22 -41 -58.5 -64.5t-101.5 -23.5q-71 0 -104.5 34t-33.5 89q0 70 65 105q10 5 22.5 9.5t22.5 7t27.5 4.5t25.5 3t28.5 1.5t24.5 0.5h27h22v25q0 66 -6 85
q-19 56 -89 56q-63 0 -100 -54l-21 16q4 11 12.5 24t27 31.5t54 31t80.5 12.5q39 0 69 -9.5t35.5 -14l20.5 -17.5q61 42 142 42q112 0 159 -69q33 -48 33 -133v-7zM572 309v7q0 119 -75 119q-37 0 -57.5 -25t-20.5 -101h153zM292 125v88q-63 0 -89 -15q-12 -7 -18 -11.5
t-13.5 -20t-7.5 -37.5q0 -71 66 -71q30 0 45 17q17 16 17 50z" />
    <glyph glyph-name="OE" unicode="&#x152;" horiz-adv-x="934" 
d="M889 140l-3 -140h-392q-75 -9 -133 -9q-156 0 -243.5 87t-87.5 240q0 157 92.5 251t247.5 94q43 0 120 -8h393q-1 -81 3 -127h-21q-1 47 -34 66q-7 4 -16.5 7t-16.5 4.5t-20 2.5t-18.5 1h-21h-18.5h-75v-245h84q61 0 81 17q23 18 26 59h20q0 -6 -1 -34t-1 -65
q0 -28 3 -97h-20q-3 35 -23 54q-23 20 -87 20h-82v-221q0 -34 10.5 -42.5t51.5 -8.5h17q32 0 48 1t37.5 7t34.5 19q23 23 24 67h21zM507 61v532q-49 26 -121 26q-104 0 -152 -65q-55 -75 -55 -227q0 -174 74 -248q44 -44 138 -44q69 0 116 26z" />
    <glyph glyph-name="oe" unicode="&#x153;" horiz-adv-x="839" 
d="M814 265h-291v-4q0 -56 12 -96t28.5 -60.5t42 -32t44.5 -14t44 -2.5q61 0 96 21l10 -13q-66 -71 -182 -71q-118 0 -165 61q-60 -66 -177 -66q-119 0 -182.5 65t-63.5 176q0 40 11.5 79.5t38 80t79.5 65.5t127 25q120 0 176 -67q52 62 160 62q112 0 159 -69
q33 -48 33 -133v-7zM678 309v7q0 119 -75 119q-37 0 -57.5 -25t-20.5 -101h153zM387 234q0 58 -9 100t-20.5 62t-29.5 31t-27 12.5t-22 1.5q-34 0 -58 -24q-44 -48 -44 -185q0 -58 9 -100t20.5 -61.5t29 -30.5t27 -12t22.5 -1q34 0 58 24q44 46 44 183z" />
    <glyph glyph-name="florin" unicode="&#x192;" 
d="M578 697l-52 -80h-10q0 1 -2 8.5t-4 13.5t-6 16t-10.5 17t-15 14t-20.5 10.5t-27 3.5q-49 0 -67 -48q-9 -26 -22 -120q-5 -39 -11 -79h108l-6 -41h-107l-33 -239q-23 -170 -40 -242t-48 -115q-47 -64 -133 -64q-89 0 -127 29v10l45 69h10q1 -2 4 -16t7.5 -25t20 -21
t39.5 -10q36 0 51 34q15 30 39 216l48 373h-64l4 21q37 4 55 25q13 17 23 83q14 91 50 135q21 26 62 43t90 17q56 0 96.5 -9.5t52.5 -18.5v-10z" />
    <glyph glyph-name="endash" unicode="&#x2013;" horiz-adv-x="423" 
d="M423 208h-423v72h423v-72z" />
    <glyph glyph-name="emdash" unicode="&#x2014;" horiz-adv-x="735" 
d="M735 208h-735v72h735v-72z" />
    <glyph glyph-name="quoteright" unicode="&#x2019;" horiz-adv-x="218" 
d="M188 584q0 -64 -36 -120t-101 -87l-12 13q50 56 50 117q0 27 -25 42q-34 22 -34 62q0 33 21.5 52.5t54.5 19.5q11 0 22 -3t26 -11.5t24.5 -30.5t9.5 -54z" />
    <glyph glyph-name="fi" unicode="&#xfb01;" horiz-adv-x="628" 
d="M604 -2q-58 3 -134 3q-71 0 -129 -3v17q27 4 43 20q6 6 10 13.5t5.5 18t2 18t1 22.5t0.5 23q1 18 1 80v98v19.5v16.5v13.5t-0.5 12t-1 9t-1 8.5t-2 7t-3 6.5t-3.5 5.5q-9 10 -35 10h-133v-275q0 -81 10 -98q15 -25 50 -27v-18q-59 3 -130 3q-101 0 -133 -3v18q30 0 49 22
q12 14 15 39t3 94v245h-62v23q48 20 62 32q0 79 21 131q24 59 84 92t146 33q72 0 127 -12.5t74 -23.5v-11l-55 -87h-10q-37 94 -126 94q-74 0 -104 -53q-21 -36 -21 -156v-12h243q42 0 70 12l6 -3q-4 -47 -4 -190v-144q0 -80 13 -100q15 -22 51 -25v-18z" />
    <glyph glyph-name="fl" unicode="&#xfb02;" horiz-adv-x="632" 
d="M608 -2q-58 3 -134 3q-70 0 -129 -3v17q27 4 43 20q6 6 10 13.5t5.5 18t2 18t1 22.5t0.5 23q1 18 1 80v359q0 60 -2 76q-29 45 -87 45q-57 0 -78 -39q-4 -7 -7 -15.5t-4.5 -20t-2.5 -20.5t-1.5 -25.5t-0.5 -25v-29.5v-29v-20h110v-50h-110v-276q0 -80 10 -97
q15 -25 50 -27v-18q-59 3 -127 3q-104 0 -136 -3v18q30 0 49 22q12 14 15 39t3 94v245h-62v23q48 20 62 32q0 83 19 133q47 123 209 123q65 0 108 -18q38 4 54 7q26 4 64 13l5 -5q-4 -48 -4 -186v-397q0 -80 13 -100q15 -22 51 -25v-18z" />
  </font>
</defs>
</svg>
